HIERARCHY
ROOT hip
{
	OFFSET 0.000000 0.000000 0.000000 
	CHANNELS 6 Xposition Yposition Zposition Xrotation Zrotation Yrotation
	JOINT abdomen
	{
		OFFSET 0.000000 3.402643 0.000000 
		CHANNELS 3 Xrotation Zrotation Yrotation
		JOINT chest
		{
			OFFSET 0.000000 8.438565 -0.680529 
			CHANNELS 3 Xrotation Zrotation Yrotation
			JOINT neck
			{
				OFFSET 0.000000 10.207942 -0.272212 
				CHANNELS 3 Xrotation Zrotation Yrotation
				JOINT head
				{
					OFFSET 0.000000 3.130431 0.000000 
					CHANNELS 3 Xrotation Zrotation Yrotation
					End Site
					{
						OFFSET 0.000000 3.130435 0.000000 
					}
				}
			}
			JOINT lCollar
			{
				OFFSET 3.470700 6.669187 -0.816635 
				CHANNELS 3 Yrotation Zrotation Xrotation
				JOINT lShldr
				{
					OFFSET 3.198488 0.000000 0.000000 
					CHANNELS 3 Zrotation Yrotation Xrotation
					JOINT lForeArm
					{
						OFFSET 10.139888 0.000000 0.000000 
						CHANNELS 3 Yrotation Zrotation Xrotation
						JOINT lHand
						{
							OFFSET 8.370511 0.000000 0.000000 
							CHANNELS 3 Zrotation Yrotation Xrotation
							End Site
							{
								OFFSET 4.083176 0.000000 0.000000 
							}
						}
					}
				}
			}
			JOINT rCollar
			{
				OFFSET -3.470700 6.669187 -0.816635 
				CHANNELS 3 Yrotation Zrotation Xrotation
				JOINT rShldr
				{
					OFFSET -3.198488 0.000000 0.000000 
					CHANNELS 3 Zrotation Yrotation Xrotation
					JOINT rForeArm
					{
						OFFSET -10.139888 0.000000 0.000000 
						CHANNELS 3 Yrotation Zrotation Xrotation
						JOINT rHand
						{
							OFFSET -8.370511 0.000000 0.000000 
							CHANNELS 3 Zrotation Yrotation Xrotation
							End Site
							{
								OFFSET -4.083176 0.000000 0.000000 
							}
						}
					}
				}
			}
		}
	}
	JOINT lThigh
	{
		OFFSET 5.308129 -1.633274 1.361059 
		CHANNELS 3 Xrotation Zrotation Yrotation
		JOINT lShin
		{
			OFFSET -2.041588 -20.007561 0.000000 
			CHANNELS 3 Xrotation Zrotation Yrotation
			JOINT lFoot
			{
				OFFSET 0.000000 -19.190928 -1.224953 
				CHANNELS 3 Xrotation Yrotation Zrotation
				End Site
				{
					OFFSET 0.000000 -2.449906 4.627600 
				}
			}
		}
	}
	JOINT rThigh
	{
		OFFSET -5.308129 -1.633274 1.361059 
		CHANNELS 3 Xrotation Zrotation Yrotation
		JOINT rShin
		{
			OFFSET 2.041588 -20.007561 0.000000 
			CHANNELS 3 Xrotation Zrotation Yrotation
			JOINT rFoot
			{
				OFFSET 0.000000 -19.190928 -1.224953 
				CHANNELS 3 Xrotation Yrotation Zrotation
				End Site
				{
					OFFSET 0.000000 -2.449906 4.627600 
				}
			}
		}
	}
}
MOTION
Frames: 11
Frame Time: 0.011111
27.663218 54.076473 -8.332148 2.071469 1.915988 -0.018372 25.118027 1.748243 -9.826220 -21.430746 2.593459 -2.785682 -18.274590 -0.264426 3.504466 -3.009399 -1.438912 6.782821 0.736540 -9.814158 1.078738 -52.059566 -34.856594 52.714172 -93.588158 7.986857 37.214806 8.524705 12.647240 -16.741589 -3.299667 11.850037 1.750699 51.882545 -19.258472 43.091953 84.964272 -2.954703 26.484011 -8.534408 -12.637552 56.097515 22.526106 -1.845657 -4.862825 25.607836 -5.566020 -4.291260 9.029176 7.452577 -3.659454 -36.036934 -1.221963 8.194880 57.608315 3.003529 7.920613 -26.824675 -4.927642 -0.212767 
27.668650 54.246220 -6.965515 2.228564 2.433112 0.261128 24.527111 1.393343 -10.162430 -21.274261 2.432755 -2.830322 -18.585709 0.168009 3.416915 -2.081159 -2.128875 6.770592 0.736540 -9.814158 1.078738 -52.045834 -33.870026 53.535667 -93.493279 7.940060 37.169476 8.524705 12.647240 -16.380260 -3.299667 11.850037 1.750699 52.968277 -19.780743 42.035480 85.105385 -2.793592 26.685658 -8.534408 -12.637552 55.921734 22.589191 -2.236140 -4.693766 27.216959 -5.489043 -4.506870 7.601383 7.803165 -3.641358 -35.357281 -2.022155 8.381487 53.454121 3.453041 7.553985 -27.062096 -4.470987 -0.074376 
27.682396 54.393593 -5.619021 2.346905 2.990917 0.474726 24.129261 1.027084 -10.381422 -21.352186 2.281297 -2.856685 -17.759930 -1.317915 4.026325 -2.925814 0.479183 7.371372 0.736540 -9.814158 1.078738 -52.023888 -32.756416 54.415356 -93.416336 7.902927 37.125542 8.524705 12.647240 -15.989635 -3.299667 11.850037 1.750699 53.931442 -20.173943 41.127411 85.234955 -2.636329 26.877102 -8.534408 -12.637552 55.892437 22.438217 -2.685604 -4.340124 29.164186 -5.372539 -4.760589 5.804193 9.195108 -3.676687 -34.658840 -2.852600 8.576197 49.460182 3.834366 7.142887 -27.514105 -3.772719 0.155709 
27.683037 54.488853 -4.284355 2.347529 3.280046 0.574556 23.926344 0.900872 -10.482469 -21.449602 2.060929 -2.870591 -16.889435 -2.908069 4.555088 -4.272873 3.128054 7.793711 0.736540 -9.814158 1.078738 -51.865105 -31.582724 55.181309 -93.303383 7.845346 37.070637 8.524705 12.647240 -15.872450 -3.299667 11.850037 1.750699 54.806046 -20.262794 40.417557 85.343010 -2.499079 27.036478 -8.534408 -12.637552 56.175640 22.216751 -2.861355 -3.798176 31.271929 -5.255493 -5.035873 3.963497 10.781081 -3.659479 -33.707741 -3.320694 8.839189 45.712059 4.186277 6.748408 -28.075953 -3.194393 0.329189 
27.694862 54.563660 -2.948412 2.260282 3.619763 0.651320 23.848635 0.760260 -10.587121 -21.371374 1.849356 -2.878094 -17.176746 -2.473096 4.379660 -3.910797 2.113051 7.616963 0.736540 -9.814158 1.078738 -51.774021 -30.448822 55.854916 -93.180412 7.782867 37.004200 8.524705 12.647240 -15.960339 -3.299667 11.850037 1.750699 55.658203 -20.117123 39.794376 85.471977 -2.330526 27.256952 -8.534408 -12.637552 56.702984 21.970732 -3.095686 -3.208974 33.581921 -5.127559 -5.312936 2.528298 11.482554 -3.520113 -32.532177 -3.857918 9.072013 42.271614 4.473094 6.367805 -28.055456 -2.510280 0.655460 
27.727793 54.620243 -1.612787 2.134122 4.040102 0.678457 23.806141 0.542892 -10.682068 -21.166409 1.790951 -2.878533 -17.942749 -1.017291 3.967397 -2.828244 -0.781528 7.390623 0.736540 -9.814158 1.078738 -51.995197 -29.396458 56.432415 -93.083458 7.735847 36.939831 8.524705 12.647240 -16.048231 -3.299667 11.850037 1.750699 56.304092 -19.771423 39.317005 85.585266 -2.175742 27.475613 -8.534408 -12.637552 57.083843 21.676050 -3.387717 -2.479943 36.054371 -4.976537 -5.623288 1.450582 11.665717 -3.389069 -31.365585 -4.511471 9.163221 39.269352 4.700297 5.992628 -27.693323 -1.931260 1.005885 
27.736744 54.646782 -0.252867 1.859494 3.824768 0.769334 23.867085 1.030092 -10.491274 -20.932199 1.646554 -2.865691 -18.115511 -0.677730 3.934489 -2.767179 -1.842287 7.468916 0.736540 -9.814158 1.078738 -52.413010 -28.277855 57.020580 -92.953926 7.666311 36.883911 8.524705 12.647240 -16.214247 -3.299667 11.850037 1.750699 56.889656 -19.180243 38.902473 85.637657 -2.096187 27.580349 -8.534408 -12.637552 57.152206 21.294470 -2.948107 -1.377498 38.670788 -4.797681 -5.923618 0.130987 12.004869 -3.192169 -29.960032 -4.423451 9.073628 36.821373 4.896082 5.705426 -28.444960 -1.940782 0.860168 
27.707331 54.622807 1.094585 1.634555 3.931241 0.894077 23.912651 0.974100 -10.359455 -20.776142 1.655630 -2.822147 -18.262894 -0.843899 3.962815 -2.786896 -1.967780 7.475639 0.736540 -9.814158 1.078738 -52.764137 -26.982723 57.861885 -92.793976 7.582538 36.797291 8.524705 12.647240 -16.214247 -3.299667 11.850037 1.750699 57.676521 -18.652964 38.299160 85.698448 -2.010469 27.714638 -8.534408 -12.637552 57.074074 20.701468 -2.684874 -0.359946 41.440590 -4.567267 -6.261769 -1.296819 12.303108 -2.970113 -28.848520 -4.551223 9.211476 34.985386 5.026998 5.466784 -29.823822 -1.899969 0.668926 
27.672806 54.505802 2.381619 1.430445 4.721296 1.055973 24.148693 0.039016 -10.537781 -20.746964 1.893202 -2.770218 -18.838547 -0.657271 3.825456 -2.148789 -2.545379 7.249383 0.736540 -9.814158 1.078738 -52.997395 -25.666777 58.678280 -92.614738 7.487964 36.689018 8.524705 12.647240 -16.224012 -3.299667 11.850037 1.750699 58.424770 -18.144583 37.795254 85.780754 -1.882611 27.900991 -8.534408 -12.637552 56.976421 20.037769 -3.056277 0.309677 44.498501 -4.333353 -6.595256 -2.594321 12.465088 -2.732854 -28.050678 -5.419707 9.321311 33.567245 5.091465 5.292180 -30.556149 -1.895065 0.520091 
27.662258 54.325817 3.661299 0.970037 4.805406 1.156188 24.719927 0.017056 -10.373278 -20.747046 1.943568 -2.722973 -18.919127 -0.736547 3.700105 -2.456839 -2.844086 6.996805 0.736540 -9.814158 1.078738 -53.396240 -24.391668 59.226387 -92.401398 7.370082 36.570168 8.524705 12.647240 -16.165417 -3.299667 11.850037 1.750699 58.952156 -17.269272 37.522083 85.835052 -1.794554 28.045115 -8.534408 -12.637552 56.868999 19.379749 -2.801693 1.129828 47.905659 -4.011328 -6.980531 -4.036931 12.807671 -2.461187 -26.605801 -5.576079 8.955250 32.390343 5.185089 5.135693 -30.803816 -2.438606 0.187955 
27.670246 54.157032 4.933946 0.597012 3.943696 1.115920 25.223894 1.123039 -9.604226 -20.805723 1.709439 -2.629396 -18.747253 -1.090560 3.691169 -3.131982 -2.629080 6.857728 0.736540 -9.814158 1.078738 -53.853390 -23.117157 59.676857 -92.152893 7.228725 36.431274 8.524705 12.647240 -15.794324 -3.299667 11.850037 1.750699 59.592648 -16.172403 37.132622 85.881210 -1.723481 28.178019 -8.534408 -12.637552 56.478378 18.150616 -1.581256 2.358314 51.501415 -3.669792 -7.357106 -5.017028 13.080851 -2.270932 -24.975636 -4.677658 8.280527 31.614138 5.218531 5.056617 -30.762537 -2.477365 0.172164 
